<svg width="382" height="46" viewBox="0 0 382 46" fill="none" xmlns="http://www.w3.org/2000/svg">
  <g transform="translate(0 5)">
    <g fill="#FFFDFE">
      <path d="M13.623457 29.8612881C15.2582086 9.77393709 26.6953278 1.84148675 29.2400298 0.313788079V0.315543046H38.5940033C38.5940033 0.315543046 39.9962219 21.0706589 19.3349967 34.2995993C17.2027119 32.8912384 15.3047152 31.3951291 13.6155596 29.8507583L13.623457 29.8612881Z"/>
      <path d="M6.24110099 20.9827351C-0.336514901 10.3958974 0.00307119205 0.309225166 0.00307119205 0.309225166H26.8874089H26.8830215C23.967144 1.49207285 13.261846 6.65518543 6.24724338 20.9932649L6.24110099 20.9827351Z"/>
      <path d="M258.324808 3.33961424C258.324808 1.50655132 259.831447 -8.77483e-05 261.662755 -8.77483e-05C263.49143 -8.77483e-05 264.999825 1.50655132 264.999825 3.33961424C264.999825 5.18759437 263.49143 6.67756126 261.662755 6.67756126C259.831447 6.67756126 258.324808 5.18759437 258.324808 3.33961424ZM261.662755 6.1826606C263.227308 6.1826606 264.504924 4.90153477 264.504924 3.33961424C264.504924 1.77769371 263.227308 0.498322848 261.662755 0.498322848C260.099079 0.498322848 258.822341 1.77769371 258.822341 3.33961424C258.822341 4.90153477 260.099079 6.1826606 261.662755 6.1826606ZM260.397424 1.49426656H261.577639C262.245404 1.49426656 263.013202 1.60921689 263.013202 2.62885265C263.013202 3.25537583 262.626232 3.38261093 262.401596 3.49580629L263.052689 5.01473013H262.345437L261.790868 3.59408444H261.040619V5.01473013H260.397424V1.49426656ZM261.040619 3.02810762H261.806662C262.101497 3.02810762 262.345437 2.88420033 262.345437 2.57181623C262.345437 2.2603096 262.133086 2.10411755 261.746116 2.10411755H261.040619V3.02810762Z"/>
      <path d="M59.1489652 33.5931374C58.7970944 33.719495 57.9450579 33.9871275 56.9666639 33.9871275C55.1362334 33.9871275 53.6567964 33.0850745 53.6567964 30.4833361C53.6567964 28.7195944 54.3780877 27.1295944 56.7964321 27.1295944C58.4952401 27.1295944 59.4745116 27.9193295 59.4745116 29.056548H58.0731705C58.0731705 28.6537831 57.9283858 27.9035348 56.7630877 27.9035348C55.1941474 27.9035348 54.9817964 29.4233361 54.9817964 30.328899C54.9817964 31.99875 55.4863493 33.2193295 57.2070944 33.2193295C58.2346275 33.2193295 58.9295944 32.8060348 59.1489652 32.6981043V33.5931374Z"/>
      <path d="M67.323952 27.2356821H68.8060215L71.6473129 33.8826192H70.373207L69.551005 31.983745H66.5745811L65.7716838 33.8826192H64.4914354L67.323952 27.2356821ZM66.8562533 31.215947H69.2289685L68.0838526 28.1228179H68.0592831L66.8562533 31.215947Z"/>
      <path d="M77.5272417 27.2356821H79.5252715C80.7519934 27.2356821 82.4376391 27.3795894 82.4376391 29.1240265C82.4376391 30.7500033 80.6484503 30.9948212 79.8034338 30.9948212H78.729394V33.8826192H77.5272417V27.2356821ZM78.729394 30.2208808H79.5849404C80.4624238 30.2208808 81.114394 29.9348212 81.114394 29.1240265C81.114394 28.0736788 80.2097086 28.0052351 79.5849404 28.0052351H78.729394V30.2208808Z"/>
      <path d="M88.3660927 27.2358576H89.5691225V33.8827947H88.3660927V27.2358576Z"/>
      <path d="M97.4094371 28.0051474H95.3376987V27.2355944H100.685083V28.0051474H98.6124669V33.8825315H97.4094371V28.0051474Z"/>
      <path d="M108.213452 27.2356821H109.695522L112.538568 33.8826192H111.262707L110.444015 31.983745H107.467591L106.662939 33.8826192H105.384445L108.213452 27.2356821ZM107.745753 31.215947H110.118469L108.97072 28.1228179H108.952293L107.745753 31.215947Z"/>
      <path d="M118.415864 27.2356821H119.618894V33.1113113H122.813811V33.8826192H118.415864V27.2356821Z"/>
      <path d="M136.951912 27.2356821H138.651598L141.010273 32.6822219H141.034843L143.397028 27.2356821H145.082674V33.8826192H143.999859V28.3711457H143.97529L141.589412 33.8826192H140.445174L138.061929 28.3711457H138.037359V33.8826192H136.951912V27.2356821Z"/>
      <path d="M153.636031 27.2356821H155.116346L157.96027 33.8826192H156.682654L155.867472 31.983745H152.891048L152.082886 33.8826192H150.80527L153.636031 27.2356821ZM153.168333 31.215947H155.541925L154.3933 28.1228179H154.374873L153.168333 31.215947Z"/>
      <path d="M163.326959 27.2356821H164.83272L168.109243 32.437404H168.132935V27.2356821H169.21575V33.8826192H167.796859L164.436975 28.5536623H164.408896V33.8826192H163.326959V27.2356821Z"/>
      <path d="M177.921965 27.2356821H179.40579L182.250591 33.8826192H180.972975L180.153406 31.983745H177.179614L176.369697 33.8826192H175.094714L177.921965 27.2356821ZM177.456022 31.215947H179.827859L178.683621 28.1228179H178.660806L177.456022 31.215947Z"/>
      <path d="M193.80152 33.3635C193.548805 33.5205695 192.594103 33.9873907 191.219964 33.9873907C189.078904 33.9873907 187.717927 32.9300232 187.717927 30.3581192C187.717927 28.5268113 188.618225 27.1298576 190.979533 27.1298576C192.486172 27.1298576 193.747116 27.7388311 193.747116 29.0173245H192.417728C192.417728 28.4531026 192.015841 27.9029205 190.967248 27.9029205C189.403573 27.9029205 189.043805 29.1533344 189.043805 30.3581192C189.043805 31.6216954 189.27195 33.2195927 191.185742 33.2195927C191.920195 33.2195927 192.511619 33.0555033 192.594103 32.9616126V30.8223079H190.821586V30.051H193.80152V33.3635Z"/>
      <path d="M200.964505 27.2356821H205.554621V28.0052351H202.16929V30.0401192H205.385267V30.8096722H202.16929V33.1113113H205.662551V33.8826192H200.964505V27.2356821Z"/>
      <path d="M211.79502 27.2356821H213.490318L215.849871 32.6822219H215.873563L218.235748 27.2356821H219.921394V33.8826192H218.837702V28.3711457H218.81401L216.430765 33.8826192H215.287404L212.899772 28.3711457H212.876957V33.8826192H211.79502V27.2356821Z"/>
      <path d="M226.658273 27.2356821H231.246634V28.0052351H227.861303V30.0401192H231.079035V30.8096722H227.861303V33.1113113H231.351932V33.8826192H226.658273V27.2356821Z"/>
      <path d="M237.493175 27.2356821H239.002447L242.27546 32.437404H242.30003V27.2356821H243.385477V33.8826192H241.962199L238.605825 28.5536623H238.5795V33.8826192H237.493175V27.2356821Z"/>
      <path d="M251.224387 28.0051474H249.154404V27.2355944H254.500911V28.0051474H252.430927V33.8825315H251.224387V28.0051474Z"/>
      <path d="M53.8555464 23.7031093H254.538642V22.9151291H53.8555464V23.7031093Z"/>
      <path d="M56.8515381 4.17769868C56.8515381 1.36536424 56.7883593 1.36536424 53.8189553 0.933642384V0.312384106H64.8120679C68.6993195 0.312384106 72.3663228 2.21476821 72.3663228 5.56938742C72.3663228 10.9439735 66.4889387 10.9439735 62.5727301 10.9439735H61.4679785V19.4459106H56.8515381V4.17769868ZM61.4679785 9.60668874H63.107995C65.6044354 9.60668874 67.7516374 8.87048013 67.7516374 5.45706954C67.7516374 2.27443709 66.0782765 1.64528146 63.2650646 1.64528146C61.5601142 1.64528146 61.4679785 2.18581126 61.4679785 3.35198675V9.60668874Z"/>
      <path d="M88.0836308 3.95148344C88.2757997 3.46711258 88.6206507 2.47116887 88.6206507 2.27461258C88.6206507 1.13476159 87.4535977 1.10843709 86.189144 0.933817881V0.311682119H93.2695579L100.97474 19.4469636H96.5522235L94.1830182 13.5327252H86.1268427L83.7585149 19.4469636H81.7973394L88.0836308 3.95148344ZM86.6629851 12.1936854H93.6442434L90.0430513 3.89181457L86.6629851 12.1936854Z"/>
      <path d="M116.215311 1.64642219H114.038275C111.540957 1.64642219 110.816156 2.35981623 110.624864 4.43243212H109.741238L109.868474 0.311769868H127.182099L127.308457 4.51930298H126.426586C126.426586 2.3291043 125.412215 1.64642219 122.981586 1.64642219H120.834384V19.4470513H116.215311V1.64642219Z"/>
      <path d="M140.842323 4.06459106C140.842323 1.81735596 140.651031 1.56025331 137.685137 1.27858113V0.65293543L145.457008 8.77483e-05V8.81089901H154.051959V0.311594371H158.665767V19.4468758H154.051959V10.1473063H145.457008V19.4468758H140.842323V4.06459106Z"/>
      <path d="M173.049563 3.95148344C172.385308 1.36466225 172.101881 1.38923179 169.480838 0.933817881V0.311682119H176.339248L180.50905 15.8054073H180.568719L185.563354 0.311682119H188.310755L194.000358 15.8054073H194.060904L197.535738 0.311682119H199.588172L195.136699 19.4469636H191.563586L186.067907 4.29019205H186.006483L181.140838 19.4469636H177.058785L173.049563 3.95148344Z"/>
      <path d="M215.385507 3.95148344C215.576798 3.46711258 215.925159 2.47116887 215.925159 2.27461258C215.925159 1.13476159 214.753719 1.10843709 213.488387 0.933817881V0.311682119H220.568801L228.276616 19.4469636H223.849712L221.480507 13.5327252H213.425209L211.055126 19.4469636H209.099215L215.385507 3.95148344ZM213.964861 12.1936854H220.945242L217.344927 3.89181457L213.964861 12.1936854Z"/>
      <path d="M243.122232 10.5163758L238.03546 2.8436606C236.931586 1.16240232 236.144483 1.16240232 234.561503 0.933379139V0.311243377H241.576106L246.947182 8.69823013L252.476205 0.311243377H254.49705L247.736917 10.5163758V19.4474023H243.122232V10.5163758Z"/>
    </g>
  </g>
  <g transform="translate(282 8)">
    <rect x="0.75" y="0.75" width="98.5" height="28.5" rx="14.25" stroke="rgba(255,255,255,0.42)" stroke-width="1.5"/>
    <text x="50" y="19.5" text-anchor="middle" fill="#FFFDFE" font-family="Helvetica Neue, Helvetica, Arial, sans-serif" font-size="11" font-weight="700" letter-spacing="1.9">EDUCATION</text>
  </g>
</svg>
